<?xml version="1.0" encoding="us-ascii" standalone="no"?><svg xmlns="http://www.w3.org/2000/svg" xmlns:xlink="http://www.w3.org/1999/xlink" contentStyleType="text/css" height="386px" preserveAspectRatio="none" style="width:635px;height:386px;background:#FFFFFF;" version="1.1" viewBox="0 0 635 386" width="635px" zoomAndPan="magnify"><defs/><g><!--class IFileHandler--><g id="elem_IFileHandler"><rect codeLine="1" fill="#F1F1F1" height="48" id="IFileHandler" rx="2.5" ry="2.5" style="stroke:#181818;stroke-width:0.5;" width="118" x="19" y="7"/><ellipse cx="34" cy="23" fill="#B4A7E5" rx="11" ry="11" style="stroke:#181818;stroke-width:1.0;"/><path d="M34.9531,19.7813 L36.6719,19.7813 C37.0625,19.7813 37.25,19.75 37.375,19.6719 C37.6406,19.5156 37.7813,19.2344 37.7813,18.9375 C37.7813,18.6719 37.6719,18.4063 37.4375,18.2344 C37.2656,18.125 37.125,18.0938 36.6719,18.0938 L31.5313,18.0938 C31.0938,18.0938 30.9688,18.1094 30.8125,18.2031 C30.5625,18.3594 30.4063,18.6563 30.4063,18.9375 C30.4063,19.2188 30.5469,19.4688 30.7656,19.6406 C30.9219,19.75 31.1094,19.7813 31.5313,19.7813 L33.25,19.7813 L33.25,26.2969 L31.5313,26.2969 C31.0938,26.2969 30.9688,26.3125 30.8125,26.4219 C30.5625,26.5781 30.4063,26.8594 30.4063,27.1563 C30.4063,27.4063 30.5469,27.6719 30.7656,27.8281 C30.9219,27.9531 31.125,28 31.5313,28 L36.6719,28 C37.4219,28 37.7813,27.7188 37.7813,27.1563 C37.7813,26.875 37.6719,26.625 37.4375,26.4531 C37.2656,26.3281 37.125,26.2969 36.6719,26.2969 L34.9531,26.2969 L34.9531,19.7813 Z " fill="#000000"/><text fill="#000000" font-family="sans-serif" font-size="14" font-style="italic" lengthAdjust="spacing" textLength="86" x="48" y="27.8467">IFileHandler</text><line style="stroke:#181818;stroke-width:0.5;" x1="20" x2="136" y1="39" y2="39"/><line style="stroke:#181818;stroke-width:0.5;" x1="20" x2="136" y1="47" y2="47"/></g><!--class UnixFileHandler--><g id="elem_UnixFileHandler"><rect codeLine="4" fill="#F1F1F1" height="48" id="UnixFileHandler" rx="2.5" ry="2.5" style="stroke:#181818;stroke-width:0.5;" width="142" x="7" y="115"/><ellipse cx="22" cy="131" fill="#ADD1B2" rx="11" ry="11" style="stroke:#181818;stroke-width:1.0;"/><path d="M24.3438,126.6719 C23.4063,126.2344 22.8125,126.0938 21.9375,126.0938 C19.3125,126.0938 17.3125,128.1719 17.3125,130.8906 L17.3125,132.0156 C17.3125,134.5938 19.4219,136.4844 22.3125,136.4844 C23.5313,136.4844 24.6875,136.1875 25.4375,135.6406 C26.0156,135.2344 26.3438,134.7813 26.3438,134.3906 C26.3438,133.9375 25.9531,133.5469 25.4844,133.5469 C25.2656,133.5469 25.0625,133.625 24.875,133.8125 C24.4219,134.2969 24.4219,134.2969 24.2344,134.3906 C23.8125,134.6563 23.125,134.7813 22.3594,134.7813 C20.3125,134.7813 19.0156,133.6875 19.0156,131.9844 L19.0156,130.8906 C19.0156,129.1094 20.2656,127.7969 22,127.7969 C22.5781,127.7969 23.1875,127.9531 23.6563,128.2031 C24.1406,128.4844 24.3125,128.7031 24.4063,129.1094 C24.4688,129.5156 24.5,129.6406 24.6406,129.7656 C24.7813,129.9063 25.0156,130.0156 25.2344,130.0156 C25.5,130.0156 25.7656,129.875 25.9375,129.6563 C26.0469,129.5 26.0781,129.3125 26.0781,128.8906 L26.0781,127.4688 C26.0781,127.0313 26.0625,126.9063 25.9688,126.75 C25.8125,126.4844 25.5313,126.3438 25.2344,126.3438 C24.9375,126.3438 24.7344,126.4375 24.5156,126.75 L24.3438,126.6719 Z " fill="#000000"/><text fill="#000000" font-family="sans-serif" font-size="14" lengthAdjust="spacing" textLength="110" x="36" y="135.8467">UnixFileHandler</text><line style="stroke:#181818;stroke-width:0.5;" x1="8" x2="148" y1="147" y2="147"/><line style="stroke:#181818;stroke-width:0.5;" x1="8" x2="148" y1="155" y2="155"/></g><!--class IStringSerializer--><g id="elem_IStringSerializer"><rect codeLine="7" fill="#F1F1F1" height="48" id="IStringSerializer" rx="2.5" ry="2.5" style="stroke:#181818;stroke-width:0.5;" width="156" x="304" y="223"/><ellipse cx="319" cy="239" fill="#B4A7E5" rx="11" ry="11" style="stroke:#181818;stroke-width:1.0;"/><path d="M319.9531,235.7813 L321.6719,235.7813 C322.0625,235.7813 322.25,235.75 322.375,235.6719 C322.6406,235.5156 322.7813,235.2344 322.7813,234.9375 C322.7813,234.6719 322.6719,234.4063 322.4375,234.2344 C322.2656,234.125 322.125,234.0938 321.6719,234.0938 L316.5313,234.0938 C316.0938,234.0938 315.9688,234.1094 315.8125,234.2031 C315.5625,234.3594 315.4063,234.6563 315.4063,234.9375 C315.4063,235.2188 315.5469,235.4688 315.7656,235.6406 C315.9219,235.75 316.1094,235.7813 316.5313,235.7813 L318.25,235.7813 L318.25,242.2969 L316.5313,242.2969 C316.0938,242.2969 315.9688,242.3125 315.8125,242.4219 C315.5625,242.5781 315.4063,242.8594 315.4063,243.1563 C315.4063,243.4063 315.5469,243.6719 315.7656,243.8281 C315.9219,243.9531 316.125,244 316.5313,244 L321.6719,244 C322.4219,244 322.7813,243.7188 322.7813,243.1563 C322.7813,242.875 322.6719,242.625 322.4375,242.4531 C322.2656,242.3281 322.125,242.2969 321.6719,242.2969 L319.9531,242.2969 L319.9531,235.7813 Z " fill="#000000"/><text fill="#000000" font-family="sans-serif" font-size="14" font-style="italic" lengthAdjust="spacing" textLength="113" x="333" y="243.8467">IStringSerializer</text><rect fill="#FFFFFF" height="15.9688" style="stroke:#181818;stroke-width:1.0;stroke-dasharray:2.0,2.0;" width="9" x="454" y="220"/><text fill="#000000" font-family="sans-serif" font-size="12" font-style="italic" lengthAdjust="spacing" textLength="7" x="455" y="232.1387">T</text><line style="stroke:#181818;stroke-width:0.5;" x1="305" x2="459" y1="255" y2="255"/><line style="stroke:#181818;stroke-width:0.5;" x1="305" x2="459" y1="263" y2="263"/></g><!--class integerToStringSerializer--><g id="elem_integerToStringSerializer"><rect codeLine="10" fill="#F1F1F1" height="48" id="integerToStringSerializer" rx="2.5" ry="2.5" style="stroke:#181818;stroke-width:0.5;" width="225" x="269.5" y="331"/><ellipse cx="284.5" cy="347" fill="#ADD1B2" rx="11" ry="11" style="stroke:#181818;stroke-width:1.0;"/><path d="M286.8438,342.6719 C285.9063,342.2344 285.3125,342.0938 284.4375,342.0938 C281.8125,342.0938 279.8125,344.1719 279.8125,346.8906 L279.8125,348.0156 C279.8125,350.5938 281.9219,352.4844 284.8125,352.4844 C286.0313,352.4844 287.1875,352.1875 287.9375,351.6406 C288.5156,351.2344 288.8438,350.7813 288.8438,350.3906 C288.8438,349.9375 288.4531,349.5469 287.9844,349.5469 C287.7656,349.5469 287.5625,349.625 287.375,349.8125 C286.9219,350.2969 286.9219,350.2969 286.7344,350.3906 C286.3125,350.6563 285.625,350.7813 284.8594,350.7813 C282.8125,350.7813 281.5156,349.6875 281.5156,347.9844 L281.5156,346.8906 C281.5156,345.1094 282.7656,343.7969 284.5,343.7969 C285.0781,343.7969 285.6875,343.9531 286.1563,344.2031 C286.6406,344.4844 286.8125,344.7031 286.9063,345.1094 C286.9688,345.5156 287,345.6406 287.1406,345.7656 C287.2813,345.9063 287.5156,346.0156 287.7344,346.0156 C288,346.0156 288.2656,345.875 288.4375,345.6563 C288.5469,345.5 288.5781,345.3125 288.5781,344.8906 L288.5781,343.4688 C288.5781,343.0313 288.5625,342.9063 288.4688,342.75 C288.3125,342.4844 288.0313,342.3438 287.7344,342.3438 C287.4375,342.3438 287.2344,342.4375 287.0156,342.75 L286.8438,342.6719 Z " fill="#000000"/><text fill="#000000" font-family="sans-serif" font-size="14" lengthAdjust="spacing" textLength="182" x="298.5" y="351.8467">integerToStringSerializer</text><rect fill="#FFFFFF" height="15.9688" style="stroke:#181818;stroke-width:1.0;stroke-dasharray:2.0,2.0;" width="9" x="488.5" y="328"/><text fill="#000000" font-family="sans-serif" font-size="12" font-style="italic" lengthAdjust="spacing" textLength="7" x="489.5" y="340.1387">T</text><line style="stroke:#181818;stroke-width:0.5;" x1="270.5" x2="493.5" y1="363" y2="363"/><line style="stroke:#181818;stroke-width:0.5;" x1="270.5" x2="493.5" y1="371" y2="371"/></g><!--class IAlgorithm--><g id="elem_IAlgorithm"><rect codeLine="13" fill="#F1F1F1" height="48" id="IAlgorithm" rx="2.5" ry="2.5" style="stroke:#181818;stroke-width:0.5;" width="106" x="329" y="7"/><ellipse cx="344" cy="23" fill="#B4A7E5" rx="11" ry="11" style="stroke:#181818;stroke-width:1.0;"/><path d="M344.9531,19.7813 L346.6719,19.7813 C347.0625,19.7813 347.25,19.75 347.375,19.6719 C347.6406,19.5156 347.7813,19.2344 347.7813,18.9375 C347.7813,18.6719 347.6719,18.4063 347.4375,18.2344 C347.2656,18.125 347.125,18.0938 346.6719,18.0938 L341.5313,18.0938 C341.0938,18.0938 340.9688,18.1094 340.8125,18.2031 C340.5625,18.3594 340.4063,18.6563 340.4063,18.9375 C340.4063,19.2188 340.5469,19.4688 340.7656,19.6406 C340.9219,19.75 341.1094,19.7813 341.5313,19.7813 L343.25,19.7813 L343.25,26.2969 L341.5313,26.2969 C341.0938,26.2969 340.9688,26.3125 340.8125,26.4219 C340.5625,26.5781 340.4063,26.8594 340.4063,27.1563 C340.4063,27.4063 340.5469,27.6719 340.7656,27.8281 C340.9219,27.9531 341.125,28 341.5313,28 L346.6719,28 C347.4219,28 347.7813,27.7188 347.7813,27.1563 C347.7813,26.875 347.6719,26.625 347.4375,26.4531 C347.2656,26.3281 347.125,26.2969 346.6719,26.2969 L344.9531,26.2969 L344.9531,19.7813 Z " fill="#000000"/><text fill="#000000" font-family="sans-serif" font-size="14" font-style="italic" lengthAdjust="spacing" textLength="74" x="358" y="27.8467">IAlgorithm</text><line style="stroke:#181818;stroke-width:0.5;" x1="330" x2="434" y1="39" y2="39"/><line style="stroke:#181818;stroke-width:0.5;" x1="330" x2="434" y1="47" y2="47"/></g><!--class HuffmanCompression--><g id="elem_HuffmanCompression"><rect codeLine="16" fill="#F1F1F1" height="48" id="HuffmanCompression" rx="2.5" ry="2.5" style="stroke:#181818;stroke-width:0.5;" width="187" x="184.5" y="115"/><ellipse cx="199.5" cy="131" fill="#ADD1B2" rx="11" ry="11" style="stroke:#181818;stroke-width:1.0;"/><path d="M201.8438,126.6719 C200.9063,126.2344 200.3125,126.0938 199.4375,126.0938 C196.8125,126.0938 194.8125,128.1719 194.8125,130.8906 L194.8125,132.0156 C194.8125,134.5938 196.9219,136.4844 199.8125,136.4844 C201.0313,136.4844 202.1875,136.1875 202.9375,135.6406 C203.5156,135.2344 203.8438,134.7813 203.8438,134.3906 C203.8438,133.9375 203.4531,133.5469 202.9844,133.5469 C202.7656,133.5469 202.5625,133.625 202.375,133.8125 C201.9219,134.2969 201.9219,134.2969 201.7344,134.3906 C201.3125,134.6563 200.625,134.7813 199.8594,134.7813 C197.8125,134.7813 196.5156,133.6875 196.5156,131.9844 L196.5156,130.8906 C196.5156,129.1094 197.7656,127.7969 199.5,127.7969 C200.0781,127.7969 200.6875,127.9531 201.1563,128.2031 C201.6406,128.4844 201.8125,128.7031 201.9063,129.1094 C201.9688,129.5156 202,129.6406 202.1406,129.7656 C202.2813,129.9063 202.5156,130.0156 202.7344,130.0156 C203,130.0156 203.2656,129.875 203.4375,129.6563 C203.5469,129.5 203.5781,129.3125 203.5781,128.8906 L203.5781,127.4688 C203.5781,127.0313 203.5625,126.9063 203.4688,126.75 C203.3125,126.4844 203.0313,126.3438 202.7344,126.3438 C202.4375,126.3438 202.2344,126.4375 202.0156,126.75 L201.8438,126.6719 Z " fill="#000000"/><text fill="#000000" font-family="sans-serif" font-size="14" lengthAdjust="spacing" textLength="155" x="213.5" y="135.8467">HuffmanCompression</text><line style="stroke:#181818;stroke-width:0.5;" x1="185.5" x2="370.5" y1="147" y2="147"/><line style="stroke:#181818;stroke-width:0.5;" x1="185.5" x2="370.5" y1="155" y2="155"/></g><!--class LZWCompression--><g id="elem_LZWCompression"><rect codeLine="19" fill="#F1F1F1" height="48" id="LZWCompression" rx="2.5" ry="2.5" style="stroke:#181818;stroke-width:0.5;" width="158" x="407" y="115"/><ellipse cx="422" cy="131" fill="#ADD1B2" rx="11" ry="11" style="stroke:#181818;stroke-width:1.0;"/><path d="M424.3438,126.6719 C423.4063,126.2344 422.8125,126.0938 421.9375,126.0938 C419.3125,126.0938 417.3125,128.1719 417.3125,130.8906 L417.3125,132.0156 C417.3125,134.5938 419.4219,136.4844 422.3125,136.4844 C423.5313,136.4844 424.6875,136.1875 425.4375,135.6406 C426.0156,135.2344 426.3438,134.7813 426.3438,134.3906 C426.3438,133.9375 425.9531,133.5469 425.4844,133.5469 C425.2656,133.5469 425.0625,133.625 424.875,133.8125 C424.4219,134.2969 424.4219,134.2969 424.2344,134.3906 C423.8125,134.6563 423.125,134.7813 422.3594,134.7813 C420.3125,134.7813 419.0156,133.6875 419.0156,131.9844 L419.0156,130.8906 C419.0156,129.1094 420.2656,127.7969 422,127.7969 C422.5781,127.7969 423.1875,127.9531 423.6563,128.2031 C424.1406,128.4844 424.3125,128.7031 424.4063,129.1094 C424.4688,129.5156 424.5,129.6406 424.6406,129.7656 C424.7813,129.9063 425.0156,130.0156 425.2344,130.0156 C425.5,130.0156 425.7656,129.875 425.9375,129.6563 C426.0469,129.5 426.0781,129.3125 426.0781,128.8906 L426.0781,127.4688 C426.0781,127.0313 426.0625,126.9063 425.9688,126.75 C425.8125,126.4844 425.5313,126.3438 425.2344,126.3438 C424.9375,126.3438 424.7344,126.4375 424.5156,126.75 L424.3438,126.6719 Z " fill="#000000"/><text fill="#000000" font-family="sans-serif" font-size="14" lengthAdjust="spacing" textLength="126" x="436" y="135.8467">LZWCompression</text><line style="stroke:#181818;stroke-width:0.5;" x1="408" x2="564" y1="147" y2="147"/><line style="stroke:#181818;stroke-width:0.5;" x1="408" x2="564" y1="155" y2="155"/></g><!--class CompressionArgs--><g id="elem_CompressionArgs"><rect codeLine="22" fill="#F1F1F1" height="48" id="CompressionArgs" rx="2.5" ry="2.5" style="stroke:#181818;stroke-width:0.5;" width="158" x="470" y="7"/><ellipse cx="485" cy="23" fill="#ADD1B2" rx="11" ry="11" style="stroke:#181818;stroke-width:1.0;"/><path d="M487.3438,18.6719 C486.4063,18.2344 485.8125,18.0938 484.9375,18.0938 C482.3125,18.0938 480.3125,20.1719 480.3125,22.8906 L480.3125,24.0156 C480.3125,26.5938 482.4219,28.4844 485.3125,28.4844 C486.5313,28.4844 487.6875,28.1875 488.4375,27.6406 C489.0156,27.2344 489.3438,26.7813 489.3438,26.3906 C489.3438,25.9375 488.9531,25.5469 488.4844,25.5469 C488.2656,25.5469 488.0625,25.625 487.875,25.8125 C487.4219,26.2969 487.4219,26.2969 487.2344,26.3906 C486.8125,26.6563 486.125,26.7813 485.3594,26.7813 C483.3125,26.7813 482.0156,25.6875 482.0156,23.9844 L482.0156,22.8906 C482.0156,21.1094 483.2656,19.7969 485,19.7969 C485.5781,19.7969 486.1875,19.9531 486.6563,20.2031 C487.1406,20.4844 487.3125,20.7031 487.4063,21.1094 C487.4688,21.5156 487.5,21.6406 487.6406,21.7656 C487.7813,21.9063 488.0156,22.0156 488.2344,22.0156 C488.5,22.0156 488.7656,21.875 488.9375,21.6563 C489.0469,21.5 489.0781,21.3125 489.0781,20.8906 L489.0781,19.4688 C489.0781,19.0313 489.0625,18.9063 488.9688,18.75 C488.8125,18.4844 488.5313,18.3438 488.2344,18.3438 C487.9375,18.3438 487.7344,18.4375 487.5156,18.75 L487.3438,18.6719 Z " fill="#000000"/><text fill="#000000" font-family="sans-serif" font-size="14" lengthAdjust="spacing" textLength="126" x="499" y="27.8467">CompressionArgs</text><line style="stroke:#181818;stroke-width:0.5;" x1="471" x2="627" y1="39" y2="39"/><line style="stroke:#181818;stroke-width:0.5;" x1="471" x2="627" y1="47" y2="47"/></g><!--reverse link IFileHandler to UnixFileHandler--><g id="link_IFileHandler_UnixFileHandler"><path codeLine="25" d="M78,73 C78,90.658 78,96.941 78,114.678 " fill="none" id="IFileHandler-backto-UnixFileHandler" style="stroke:#181818;stroke-width:1.0;"/><polygon fill="none" points="78,55,72,73,84,73,78,55" style="stroke:#181818;stroke-width:1.0;"/></g><!--reverse link IStringSerializer to integerToStringSerializer--><g id="link_IStringSerializer_integerToStringSerializer"><path codeLine="26" d="M382,289 C382,306.6584 382,312.9408 382,330.6784 " fill="none" id="IStringSerializer-backto-integerToStringSerializer" style="stroke:#181818;stroke-width:1.0;"/><polygon fill="none" points="382,271,376,289,388,289,382,271" style="stroke:#181818;stroke-width:1.0;"/></g><!--reverse link IAlgorithm to HuffmanCompression--><g id="link_IAlgorithm_HuffmanCompression"><path codeLine="27" d="M346.8278,67.8485 C329.5028,85.5065 318.285,96.941 300.882,114.678 " fill="none" id="IAlgorithm-backto-HuffmanCompression" style="stroke:#181818;stroke-width:1.0;"/><polygon fill="none" points="359.434,55,342.545,63.6464,351.1106,72.0506,359.434,55" style="stroke:#181818;stroke-width:1.0;"/></g><!--reverse link IAlgorithm to LZWCompression--><g id="link_IAlgorithm_LZWCompression"><path codeLine="28" d="M417.1722,67.8485 C434.4972,85.5065 445.715,96.941 463.118,114.678 " fill="none" id="IAlgorithm-backto-LZWCompression" style="stroke:#181818;stroke-width:1.0;"/><polygon fill="none" points="404.566,55,412.8894,72.0506,421.455,63.6464,404.566,55" style="stroke:#181818;stroke-width:1.0;"/></g><!--link HuffmanCompression to IStringSerializer--><g id="link_HuffmanCompression_IStringSerializer"><path codeLine="29" d="M300.566,163 C317.891,180.658 337.5129,200.6582 354.9159,218.3952 " fill="none" id="HuffmanCompression-to-IStringSerializer" style="stroke:#181818;stroke-width:1.0;stroke-dasharray:7.0,7.0;"/><polygon fill="#181818" points="359.118,222.678,355.67,213.4524,355.6162,219.109,349.9596,219.0553,359.118,222.678" style="stroke:#181818;stroke-width:1.0;"/></g><!--link LZWCompression to IStringSerializer--><g id="link_LZWCompression_IStringSerializer"><path codeLine="30" d="M463.434,163 C446.109,180.658 426.4871,200.6582 409.0841,218.3952 " fill="none" id="LZWCompression-to-IStringSerializer" style="stroke:#181818;stroke-width:1.0;stroke-dasharray:7.0,7.0;"/><polygon fill="#181818" points="404.882,222.678,414.0404,219.0553,408.3838,219.109,408.33,213.4524,404.882,222.678" style="stroke:#181818;stroke-width:1.0;"/></g><!--SRC=[TP3B2i8m44NtynNvWVOBIg48Ki5TAuAxK2Tn80-PL10V_oxQXMdJREUU6UuPSYEoaWEAtPOCjjAT3R9umXjWC384SN1qJoBwhtKZazCTCab33-Igh-FrBwcHUv_bebkDqPvflDZuGdjJoagtyVRA609v5wVxqp6JHEE6TPYYcMNrAegb7oH24vRrWAZrZqpx9iYyDAmObcMTlbR0mdQL-W00]--></g></svg>